<svg id="Layer_1" data-name="Layer 1" xmlns="http://www.w3.org/2000/svg" viewBox="0 0 502.06 566.84"><defs><style>.cls-1{fill:none;stroke:#a7a9ac;stroke-linecap:round;stroke-linejoin:round;stroke-width:1.5px;}.cls-2{fill:#a7a9ac;}.cls-13,.cls-3{font-size:24px;fill:#939598;font-family:Helvetica-Light, Helvetica;font-weight:300;}.cls-3{letter-spacing:0.03em;}.cls-4{fill:#f7c684;}.cls-12,.cls-5,.cls-9{font-size:37.15px;fill:#231f20;}.cls-12,.cls-5{font-family:CMUSerif-Bold, CMU Serif;font-weight:700;}.cls-5{letter-spacing:0.02em;}.cls-6{letter-spacing:0.06em;}.cls-7{letter-spacing:0.02em;}.cls-8{fill:#aadff3;}.cls-9{font-family:CMUSerif-Italic, CMU Serif;font-style:italic;letter-spacing:0.02em;}.cls-10{fill:#c9e6d2;}.cls-11{fill:#fef490;}.cls-12{letter-spacing:0.03em;}.cls-13{letter-spacing:0.02em;}</style></defs><line class="cls-1" x1="401.89" y1="510.14" x2="401.89" y2="462.4"/><path class="cls-2" d="M409.09,472.65a.76.76,0,0,1-1-.23l-6.16-9.68-6.17,9.68a.74.74,0,0,1-1,.23.76.76,0,0,1-.23-1l6.8-10.67a.75.75,0,0,1,.63-.35.77.77,0,0,1,.63.35l6.8,10.67a.77.77,0,0,1,.11.41A.75.75,0,0,1,409.09,472.65Z"/><line class="cls-1" x1="401.89" y1="361.32" x2="401.89" y2="313.57"/><path class="cls-2" d="M409.09,323.83a.76.76,0,0,1-1-.23l-6.16-9.68-6.17,9.68a.74.74,0,0,1-1,.23.76.76,0,0,1-.23-1l6.8-10.67a.73.73,0,0,1,.63-.35.75.75,0,0,1,.63.35l6.8,10.67a.71.71,0,0,1,.11.4A.77.77,0,0,1,409.09,323.83Z"/><line class="cls-1" x1="401.89" y1="255.07" x2="401.89" y2="207.33"/><path class="cls-2" d="M409.09,217.58a.76.76,0,0,1-1-.23l-6.16-9.68-6.17,9.68a.74.74,0,0,1-1,.23.76.76,0,0,1-.23-1l6.8-10.67a.73.73,0,0,1,.63-.35.75.75,0,0,1,.63.35l6.8,10.67a.76.76,0,0,1,.11.4A.77.77,0,0,1,409.09,217.58Z"/><line class="cls-1" x1="401.89" y1="106.25" x2="401.89" y2="58.5"/><path class="cls-2" d="M409.09,68.75a.75.75,0,0,1-1-.23l-6.16-9.67-6.17,9.67a.74.74,0,0,1-1,.23.74.74,0,0,1-.23-1l6.8-10.67a.73.73,0,0,1,.63-.35.75.75,0,0,1,.63.35l6.8,10.67a.71.71,0,0,1,.11.4A.74.74,0,0,1,409.09,68.75Z"/><text class="cls-3" transform="translate(0 36.92) scale(0.97 1)">reconstructed input data</text><rect class="cls-4" x="310.64" y="361.32" width="182.5" height="99.28" rx="12"/><text class="cls-5" transform="translate(328.33 419.12) scale(0.97 1)">enc<tspan class="cls-6" x="65.05" y="0">o</tspan><tspan class="cls-7" x="88.53" y="0">der</tspan></text><rect class="cls-8" x="301.72" y="510.14" width="200.34" height="56.7" rx="12"/><text class="cls-9" transform="translate(392.85 546.65) scale(1.05 1)">x</text><rect class="cls-8" x="301.72" width="200.34" height="56.7" rx="12"/><text class="cls-9" transform="translate(392.85 36.51) scale(1.05 1)">x</text><text class="cls-9" transform="translate(391.75 35.29) scale(1.05 1)">ˆ</text><rect class="cls-10" x="356.1" y="255.07" width="91.58" height="56.7" rx="12"/><text class="cls-9" transform="translate(393.93 291.58) scale(1.05 1)">z</text><rect class="cls-11" x="310.64" y="106.25" width="182.5" height="99.28" rx="12"/><text class="cls-12" transform="translate(328.33 164.05) scale(0.97 1)">dec<tspan class="cls-6" x="65.05" y="0">o</tspan><tspan class="cls-7" x="88.53" y="0">der</tspan></text><text class="cls-13" transform="translate(181.91 291.58) scale(0.97 1)">features</text><text class="cls-13" transform="translate(159.99 547.06) scale(0.97 1)">input data</text></svg>