<svg id="Layer_1" data-name="Layer 1" xmlns="http://www.w3.org/2000/svg" viewBox="0 0 919.65 662.39"><defs><style>.cls-1,.cls-16,.cls-17,.cls-2,.cls-24,.cls-25,.cls-4,.cls-5,.cls-6{fill:none;stroke-linecap:round;stroke-linejoin:round;}.cls-1,.cls-2,.cls-24,.cls-25,.cls-4,.cls-5,.cls-6{stroke:#a7a9ac;stroke-width:1.5px;}.cls-2{stroke-dasharray:6.44 6.44;}.cls-3{fill:#a7a9ac;}.cls-4{stroke-dasharray:4.28 4.28;}.cls-5{stroke-dasharray:5.47 5.47;}.cls-6{stroke-dasharray:6.45 6.45;}.cls-7{fill:#f69fa6;}.cls-10,.cls-21,.cls-8{font-size:37.15px;fill:#231f20;}.cls-8{font-family:CMUSerif-Italic, CMU Serif;font-style:italic;letter-spacing:0.02em;}.cls-9{fill:#f7c684;}.cls-10,.cls-21{font-family:CMUSerif-Bold, CMU Serif;font-weight:700;}.cls-10,.cls-13{letter-spacing:0.02em;}.cls-11,.cls-21{letter-spacing:0.03em;}.cls-12{letter-spacing:-0.01em;}.cls-14,.cls-18,.cls-23{font-size:24px;fill:#939598;font-family:Helvetica-Light, Helvetica;font-weight:300;}.cls-14,.cls-19{letter-spacing:0.03em;}.cls-15{fill:#aadff3;}.cls-16,.cls-17{stroke:#1c75bc;stroke-width:2px;}.cls-17{stroke-dasharray:3 6;}.cls-18{letter-spacing:0.02em;}.cls-20{fill:#fef48e;}.cls-22{fill:#c9e6d2;}.cls-23{letter-spacing:0.02em;}.cls-24{stroke-dasharray:5.68 5.68;}.cls-25{stroke-dasharray:5.55 5.55;}</style></defs><line class="cls-1" x1="410.74" y1="358.66" x2="410.74" y2="361.66"/><line class="cls-2" x1="410.74" y1="368.1" x2="410.74" y2="442.16"/><line class="cls-1" x1="410.74" y1="445.38" x2="410.74" y2="448.38"/><path class="cls-3" d="M403.54,438.13a.74.74,0,0,1,1,.23l6.17,9.68,6.16-9.68a.76.76,0,0,1,1-.23.77.77,0,0,1,.23,1l-6.8,10.67a.75.75,0,0,1-1.27,0l-6.79-10.67a.77.77,0,0,1-.12-.4A.76.76,0,0,1,403.54,438.13Z"/><path class="cls-1" d="M410.74,358.66a11.68,11.68,0,0,0-.38-3"/><path class="cls-4" d="M408.58,351.83a12.12,12.12,0,0,0-4.86-4.08"/><path class="cls-1" d="M401.71,347a11.68,11.68,0,0,0-3-.38"/><line class="cls-1" x1="398.74" y1="346.66" x2="395.74" y2="346.66"/><line class="cls-5" x1="390.27" y1="346.66" x2="371.12" y2="346.66"/><line class="cls-1" x1="368.38" y1="346.66" x2="365.38" y2="346.66"/><line class="cls-1" x1="516.53" y1="71.47" x2="516.53" y2="74.47"/><line class="cls-6" x1="516.53" y1="80.93" x2="516.53" y2="129.34"/><line class="cls-1" x1="516.53" y1="132.57" x2="516.53" y2="135.57"/><path class="cls-3" d="M509.33,125.32a.74.74,0,0,1,1,.23l6.17,9.68,6.16-9.68a.74.74,0,0,1,1-.23.75.75,0,0,1,.23,1L517.16,137a.76.76,0,0,1-1.27,0l-6.79-10.68a.74.74,0,0,1,.23-1Z"/><path class="cls-1" d="M516.53,71.47a12.15,12.15,0,0,0-.38-3"/><path class="cls-4" d="M514.37,64.64a12.12,12.12,0,0,0-4.86-4.08"/><path class="cls-1" d="M507.5,59.85a11.68,11.68,0,0,0-3-.38"/><line class="cls-1" x1="504.53" y1="59.47" x2="501.53" y2="59.47"/><line class="cls-5" x1="496.05" y1="59.47" x2="476.91" y2="59.47"/><line class="cls-1" x1="474.17" y1="59.47" x2="471.17" y2="59.47"/><line class="cls-1" x1="442.8" y1="137.5" x2="442.8" y2="89.75"/><path class="cls-3" d="M450,100a.76.76,0,0,1-1-.23l-6.16-9.68-6.16,9.68a.76.76,0,0,1-1,.23.75.75,0,0,1-.23-1l6.8-10.68a.74.74,0,0,1,.63-.34.75.75,0,0,1,.63.34L450.23,99a.72.72,0,0,1,.12.4A.75.75,0,0,1,450,100Z"/><line class="cls-1" x1="311.41" y1="450.19" x2="311.41" y2="402.44"/><path class="cls-3" d="M318.61,412.69a.75.75,0,0,1-1-.23l-6.16-9.67-6.16,9.67a.75.75,0,0,1-1.27-.8l6.8-10.67a.74.74,0,0,1,1.26,0l6.8,10.67a.72.72,0,0,1,.12.4A.75.75,0,0,1,318.61,412.69Z"/><line class="cls-1" x1="443.02" y1="245.25" x2="443.02" y2="256.22"/><path class="cls-3" d="M435.82,255.51a.76.76,0,0,0,1-.23L443,245.6l6.16,9.68a.75.75,0,1,0,1.26-.81l-6.79-10.67a.75.75,0,0,0-1.27,0l-6.79,10.67a.72.72,0,0,0-.12.4A.76.76,0,0,0,435.82,255.51Z"/><path class="cls-1" d="M562.18,268.22a12,12,0,0,1,12,12"/><line class="cls-1" x1="574.18" y1="280.22" x2="574.18" y2="292.61"/><path class="cls-1" d="M311.41,280.22a12,12,0,0,1,12-12"/><line class="cls-1" x1="311.41" y1="280.22" x2="311.41" y2="292.61"/><path class="cls-1" d="M455,268.22a12,12,0,0,1-12-12"/><line class="cls-1" x1="562.18" y1="268.22" x2="455.02" y2="268.22"/><path class="cls-1" d="M443,256.22a12,12,0,0,1-12,12"/><line class="cls-1" x1="431.02" y1="268.22" x2="323.41" y2="268.22"/><line class="cls-1" x1="311.41" y1="605.69" x2="311.41" y2="557.95"/><path class="cls-3" d="M318.61,568.2a.76.76,0,0,1-1-.23l-6.16-9.68L305.25,568a.75.75,0,0,1-1.27-.81l6.8-10.67a.74.74,0,0,1,1.26,0l6.8,10.67a.77.77,0,0,1,.12.4A.78.78,0,0,1,318.61,568.2Z"/><rect class="cls-7" x="265.62" y="605.69" width="91.58" height="56.7" rx="12"/><text class="cls-8" transform="translate(303.45 642.2) scale(1.05 1)">z</text><rect class="cls-9" x="195.04" y="450.19" width="232.75" height="105.95" rx="12"/><text class="cls-10" transform="translate(221.17 495.38) scale(0.97 1)">generator<tspan class="cls-11"><tspan x="15.08" y="32">ne</tspan><tspan class="cls-12" x="60.22" y="32">tw</tspan><tspan class="cls-13" x="107.15" y="32">ork</tspan></tspan></text><text class="cls-14" transform="translate(29.56 642.2) scale(0.97 1)">random noise</text><rect class="cls-15" x="520.2" y="292.69" width="107.95" height="107.95" rx="12"/><polygon class="cls-16" points="559.99 332.62 536.28 373.69 583.7 373.69 559.99 332.62"/><polygon class="cls-16" points="597.89 349.11 583.7 373.69 612.08 373.69 597.89 349.11"/><circle class="cls-16" cx="597.89" cy="322.08" r="8.96"/><rect class="cls-15" x="257.44" y="292.69" width="107.95" height="107.95" rx="12"/><polygon class="cls-17" points="297.22 332.62 273.51 373.69 320.93 373.69 297.22 332.62"/><polygon class="cls-17" points="335.12 349.11 320.93 373.69 349.31 373.69 335.12 349.11"/><circle class="cls-17" cx="335.12" cy="322.08" r="8.96"/><text class="cls-18" transform="translate(57.97 346.66) scale(0.97 1)">fake image<tspan class="cls-19"><tspan x="-59.59" y="28.8">(from generator)</tspan></tspan></text><rect class="cls-20" x="290.76" y="137.5" width="304.08" height="105.95" rx="12"/><text class="cls-21" transform="translate(316.64 182.68) scale(0.97 1)">discriminator<tspan x="52.01" y="32">ne</tspan><tspan class="cls-12" x="97.15" y="32">tw</tspan><tspan class="cls-13" x="144.07" y="32">ork</tspan></text><rect class="cls-22" x="414.43" y="31.25" width="56.75" height="56.7" rx="12"/><text class="cls-18" transform="translate(361.87 20.62) scale(0.97 1)">“fake” or “real”</text><text class="cls-23" transform="translate(432.13 293.63) scale(0.97 1)">or</text><text class="cls-14" transform="translate(708.21 346.66) scale(0.97 1)">real image<tspan x="0" y="28.8">(from training data)</tspan></text><text class="cls-14" transform="translate(541.34 112.72) scale(0.97 1)">discriminator learning signal</text><path class="cls-1" d="M278.76,267.84a12.08,12.08,0,0,1,.37-3"/><path class="cls-4" d="M280.91,261a12.11,12.11,0,0,1,4.87-4.07"/><path class="cls-1" d="M287.79,256.21a12.08,12.08,0,0,1,3-.37"/><line class="cls-1" x1="278.76" y1="267.84" x2="278.76" y2="270.84"/><line class="cls-24" x1="278.76" y1="276.52" x2="278.76" y2="285.05"/><line class="cls-1" x1="278.76" y1="287.89" x2="278.76" y2="290.89"/><path class="cls-3" d="M271.56,280.64a.74.74,0,0,1,1,.23l6.17,9.67,6.16-9.67a.75.75,0,0,1,1.27.8l-6.8,10.67a.75.75,0,0,1-.63.35.73.73,0,0,1-.63-.35l-6.8-10.67a.74.74,0,0,1,.23-1Z"/><path class="cls-1" d="M369.07,243.84a12.14,12.14,0,0,1-.37,3"/><path class="cls-4" d="M366.92,250.68a12.1,12.1,0,0,1-4.86,4.07"/><path class="cls-1" d="M360.05,255.46a11.76,11.76,0,0,1-3,.38"/><line class="cls-1" x1="290.76" y1="255.84" x2="293.76" y2="255.84"/><line class="cls-25" x1="299.31" y1="255.84" x2="352.08" y2="255.84"/><line class="cls-1" x1="354.85" y1="255.84" x2="357.85" y2="255.84"/><text class="cls-14" transform="translate(438.4 432.91) scale(0.97 1)">generator learning signal</text></svg>