<svg id="Layer_1" data-name="Layer 1" xmlns="http://www.w3.org/2000/svg" viewBox="0 0 828.81 618.48"><defs><style>.cls-1,.cls-17,.cls-21,.cls-23,.cls-24,.cls-25,.cls-7,.cls-8{fill:none;stroke-linejoin:round;}.cls-1{stroke:#d1d3d4;}.cls-1,.cls-17,.cls-21,.cls-23,.cls-24,.cls-25{stroke-linecap:round;stroke-width:1.5px;}.cls-13,.cls-2,.cls-9{font-size:37.15px;letter-spacing:0.03em;}.cls-16,.cls-2{fill:#939598;}.cls-10,.cls-2{font-family:CMUSerif-Italic, CMU Serif;font-style:italic;}.cls-13,.cls-3,.cls-5,.cls-6,.cls-9{font-family:CMUSerif-Roman, CMU Serif;}.cls-3,.cls-5,.cls-6{font-style:normal;}.cls-14,.cls-3{letter-spacing:-0.1em;}.cls-4{letter-spacing:0.03em;}.cls-15,.cls-5{letter-spacing:-0.1em;}.cls-10,.cls-12,.cls-6{letter-spacing:0.02em;}.cls-7{stroke:#a97c50;}.cls-7,.cls-8{stroke-width:3px;}.cls-8{stroke:#ec008c;}.cls-9{fill:#ec008c;}.cls-11{letter-spacing:-0.1em;}.cls-13{fill:#a97c50;}.cls-16,.cls-18,.cls-19{font-size:24px;}.cls-16{font-family:Helvetica-Light, Helvetica;font-weight:300;letter-spacing:0.02em;}.cls-17,.cls-21,.cls-23,.cls-24,.cls-25{stroke:#a7a9ac;}.cls-18,.cls-19{fill:#d1d3d4;font-family:CMUConcrete-Roman, CMU Concrete;}.cls-18,.cls-20{letter-spacing:-0.05em;}.cls-19{letter-spacing:0.05em;}.cls-21{stroke-dasharray:6.07 6.07;}.cls-22{fill:#a7a9ac;}.cls-23{stroke-dasharray:6.03 6.03;}.cls-24{stroke-dasharray:5.9 5.9;}.cls-25{stroke-dasharray:6.44 6.44;}</style></defs><line class="cls-1" x1="190.84" y1="533.23" x2="190.84" y2="523.13"/><line class="cls-1" x1="347.01" y1="533.23" x2="347.01" y2="523.13"/><line class="cls-1" x1="503.17" y1="533.23" x2="503.17" y2="523.13"/><line class="cls-1" x1="659.33" y1="533.23" x2="659.33" y2="523.13"/><line class="cls-1" x1="35.11" y1="272.15" x2="45.21" y2="272.15"/><line class="cls-1" x1="35.11" y1="402.65" x2="45.21" y2="402.65"/><line class="cls-1" x1="35.11" y1="141.64" x2="45.21" y2="141.64"/><line class="cls-1" x1="35.11" y1="76.39" x2="45.21" y2="76.39"/><line class="cls-1" x1="35.11" y1="206.89" x2="45.21" y2="206.89"/><line class="cls-1" x1="35.11" y1="337.4" x2="45.21" y2="337.4"/><line class="cls-1" x1="35.11" y1="467.9" x2="45.21" y2="467.9"/><text class="cls-2" transform="translate(358.96 604.1) scale(1.05 1)">D<tspan class="cls-3" x="28.98" y="0">(</tspan><tspan class="cls-4" x="39.68" y="0">G</tspan><tspan class="cls-5" x="69.33" y="0">(</tspan><tspan class="cls-4" x="80.03" y="0">z</tspan><tspan class="cls-6" x="96.11" y="0">))</tspan></text><path class="cls-7" d="M35.11,271.7C371.94,304,781.49,324,800.5,533.23"/><path class="cls-8" d="M814.65,271.3C343.93,222.5,84.76,202.11,49.26,12.76"/><text class="cls-9" transform="translate(419.65 191.45) scale(1.05 1)">–log<tspan class="cls-10" x="69.74" y="0">D</tspan><tspan class="cls-11" x="98.71" y="0">(</tspan><tspan class="cls-10" x="109.41" y="0">G</tspan><tspan class="cls-11" x="139.06" y="0">(</tspan><tspan class="cls-10" x="149.76" y="0">z</tspan><tspan class="cls-12" x="165.85" y="0">))</tspan></text><text class="cls-13" transform="translate(197.44 381.1) scale(1.05 1)">log<tspan class="cls-14" x="50.23" y="0">(</tspan><tspan x="60.93" y="0">1–</tspan><tspan class="cls-10" x="99.94" y="0">D</tspan><tspan class="cls-11" x="128.92" y="0">(</tspan><tspan class="cls-10" x="139.62" y="0">G</tspan><tspan class="cls-15" x="169.27" y="0">(</tspan><tspan class="cls-10" x="179.96" y="0">z</tspan><tspan class="cls-12" x="196.05" y="0">)))</tspan></text><text class="cls-16" transform="translate(87.86 494.18) scale(0.97 1)">low gradient signal</text><text class="cls-16" transform="translate(472.98 494.18) scale(0.97 1)">high gradient signal</text><rect class="cls-17" x="35.11" y="12.76" width="779.95" height="520.47"/><text class="cls-18" transform="translate(175.99 558.69) scale(1.05 1)">0.2</text><text class="cls-18" transform="translate(28.8 558.69) scale(1.05 1)">0</text><text class="cls-18" transform="translate(332.15 558.69) scale(1.05 1)">0.4</text><text class="cls-18" transform="translate(488.32 558.69) scale(1.05 1)">0.6</text><text class="cls-18" transform="translate(644.48 558.69) scale(1.05 1)">0.8</text><text class="cls-18" transform="translate(800.21 558.69) scale(1.05 1)">1.0</text><text class="cls-19" transform="translate(0 539.37) scale(1.05 1)">–<tspan class="cls-20" x="13.2" y="0">4</tspan></text><text class="cls-19" transform="translate(0.26 474.47) scale(1.05 1)">–<tspan class="cls-20" x="13.2" y="0">3</tspan></text><text class="cls-19" transform="translate(0.26 409.58) scale(1.05 1)">–<tspan class="cls-20" x="13.2" y="0">2</tspan></text><text class="cls-19" transform="translate(0.26 344.68) scale(1.05 1)">–<tspan class="cls-20" x="13.2" y="0">1</tspan></text><text class="cls-18" transform="translate(7.12 279.78) scale(1.05 1)">0</text><text class="cls-18" transform="translate(7.2 214.89) scale(1.05 1)">1</text><text class="cls-18" transform="translate(7.2 149.99) scale(1.05 1)">2</text><text class="cls-18" transform="translate(7.2 85.09) scale(1.05 1)">3</text><text class="cls-18" transform="translate(6.93 20.2) scale(1.05 1)">4</text><text class="cls-16" transform="translate(163 59.3) scale(0.97 1)">high gradient signal</text><text class="cls-16" transform="translate(570.06 59.3) scale(0.97 1)">low gradient signal</text><line class="cls-17" x1="148" y1="51.21" x2="145" y2="51.21"/><line class="cls-21" x1="138.93" y1="51.21" x2="105.52" y2="51.21"/><line class="cls-17" x1="102.48" y1="51.21" x2="99.48" y2="51.21"/><path class="cls-22" d="M109.73,44a.76.76,0,0,1-.23,1l-9.68,6.16,9.68,6.16a.76.76,0,0,1,.23,1,.75.75,0,0,1-1,.23L98,51.84a.74.74,0,0,1-.34-.63.75.75,0,0,1,.34-.63l10.68-6.8a.72.72,0,0,1,.4-.12A.75.75,0,0,1,109.73,44Z"/><line class="cls-17" x1="788.73" y1="45.15" x2="788.73" y2="48.15"/><line class="cls-23" x1="788.73" y1="54.18" x2="788.73" y2="232.04"/><line class="cls-17" x1="788.73" y1="235.06" x2="788.73" y2="238.06"/><path class="cls-22" d="M781.53,227.8a.76.76,0,0,1,1,.23l6.16,9.68L794.9,228a.74.74,0,0,1,1-.23.76.76,0,0,1,.23,1l-6.79,10.67a.75.75,0,0,1-1.27,0l-6.8-10.67a.71.71,0,0,1-.11-.4A.77.77,0,0,1,781.53,227.8Z"/><line class="cls-17" x1="73.19" y1="492.7" x2="73.19" y2="489.7"/><line class="cls-24" x1="73.19" y1="483.8" x2="73.19" y2="309.86"/><line class="cls-17" x1="73.19" y1="306.91" x2="73.19" y2="303.91"/><path class="cls-22" d="M80.39,314.16a.75.75,0,0,1-1-.23l-6.16-9.68L67,313.93a.74.74,0,0,1-1,.23.75.75,0,0,1-.23-1l6.8-10.67a.73.73,0,0,1,.63-.35.74.74,0,0,1,.63.35l6.8,10.67a.72.72,0,0,1,.12.4A.75.75,0,0,1,80.39,314.16Z"/><line class="cls-17" x1="703.53" y1="487.7" x2="706.53" y2="487.7"/><line class="cls-25" x1="712.97" y1="487.7" x2="748.41" y2="487.7"/><line class="cls-17" x1="751.63" y1="487.7" x2="754.63" y2="487.7"/><path class="cls-22" d="M744.38,494.9a.75.75,0,0,1,.23-1l9.68-6.16-9.68-6.17a.74.74,0,0,1-.23-1,.75.75,0,0,1,1-.23l10.68,6.79a.76.76,0,0,1,0,1.27l-10.68,6.8a.8.8,0,0,1-.4.11A.74.74,0,0,1,744.38,494.9Z"/></svg>