<svg id="Layer_1" data-name="Layer 1" xmlns="http://www.w3.org/2000/svg" viewBox="0 0 332.75 332.75"><defs><style>.cls-1,.cls-14,.cls-15,.cls-5{fill:none;}.cls-1,.cls-2,.cls-3,.cls-4{stroke:#939598;stroke-width:0.25px;}.cls-1,.cls-14,.cls-15{stroke-linecap:round;stroke-linejoin:round;}.cls-2{fill:#aadff3;}.cls-2,.cls-3,.cls-4{stroke-miterlimit:10;}.cls-3{fill:#f69fa6;}.cls-4{fill:#fff;}.cls-11,.cls-12,.cls-13,.cls-6,.cls-7,.cls-8,.cls-9{font-size:37.15px;}.cls-6,.cls-7{fill:#231f20;}.cls-11,.cls-12,.cls-6,.cls-7,.cls-8,.cls-9{font-family:CMUSerif-Italic, CMU Serif;font-style:italic;}.cls-12,.cls-6{letter-spacing:0.02em;}.cls-11,.cls-13,.cls-7{letter-spacing:0.03em;}.cls-11,.cls-12,.cls-13,.cls-8,.cls-9{fill:#939598;}.cls-8{letter-spacing:0.03em;}.cls-9{letter-spacing:0.02em;}.cls-10{font-size:20px;font-style:normal;letter-spacing:0.03em;}.cls-10,.cls-13{font-family:CMUSerif-Roman, CMU Serif;}.cls-14,.cls-15{stroke:#00aeef;stroke-width:1.5px;}.cls-15{stroke-dasharray:5.97 5.97;}.cls-16{fill:#00aeef;}</style></defs><rect class="cls-1" x="0.13" y="0.13" width="47.5" height="47.5"/><rect class="cls-1" x="47.63" y="0.13" width="47.5" height="47.5"/><rect class="cls-1" x="95.13" y="0.13" width="47.5" height="47.5"/><rect class="cls-1" x="142.63" y="0.13" width="47.5" height="47.5"/><rect class="cls-1" x="190.12" y="0.13" width="47.5" height="47.5"/><rect class="cls-1" x="237.62" y="0.13" width="47.5" height="47.5"/><rect class="cls-1" x="285.12" y="0.13" width="47.5" height="47.5"/><rect class="cls-1" x="0.13" y="47.63" width="47.5" height="47.5"/><rect class="cls-1" x="47.63" y="47.63" width="47.5" height="47.5"/><rect class="cls-1" x="95.13" y="47.63" width="47.5" height="47.5"/><rect class="cls-1" x="142.63" y="47.63" width="47.5" height="47.5"/><rect class="cls-1" x="190.12" y="47.63" width="47.5" height="47.5"/><rect class="cls-1" x="237.62" y="47.63" width="47.5" height="47.5"/><rect class="cls-1" x="285.12" y="47.63" width="47.5" height="47.5"/><rect class="cls-1" x="0.13" y="95.13" width="47.5" height="47.5"/><rect class="cls-1" x="47.63" y="95.13" width="47.5" height="47.5"/><rect class="cls-1" x="95.13" y="95.13" width="47.5" height="47.5"/><rect class="cls-1" x="142.63" y="95.13" width="47.5" height="47.5"/><rect class="cls-1" x="190.12" y="95.13" width="47.5" height="47.5"/><rect class="cls-1" x="237.62" y="95.13" width="47.5" height="47.5"/><rect class="cls-1" x="285.12" y="95.13" width="47.5" height="47.5"/><rect class="cls-1" x="0.13" y="142.63" width="47.5" height="47.5"/><rect class="cls-1" x="47.63" y="142.63" width="47.5" height="47.5"/><rect class="cls-2" x="0.13" y="0.13" width="47.5" height="47.5"/><rect class="cls-2" x="47.63" y="0.13" width="47.5" height="47.5"/><rect class="cls-2" x="95.13" y="0.13" width="47.5" height="47.5"/><rect class="cls-2" x="142.63" y="0.13" width="47.5" height="47.5"/><rect class="cls-2" x="190.12" y="0.13" width="47.5" height="47.5"/><rect class="cls-2" x="237.62" y="0.13" width="47.5" height="47.5"/><rect class="cls-2" x="285.12" y="0.13" width="47.5" height="47.5"/><rect class="cls-2" x="0.13" y="47.63" width="47.5" height="47.5"/><rect class="cls-2" x="47.63" y="47.63" width="47.5" height="47.5"/><rect class="cls-2" x="95.13" y="47.63" width="47.5" height="47.5"/><rect class="cls-2" x="142.63" y="47.63" width="47.5" height="47.5"/><rect class="cls-2" x="190.12" y="47.63" width="47.5" height="47.5"/><rect class="cls-2" x="237.62" y="47.63" width="47.5" height="47.5"/><rect class="cls-2" x="285.12" y="47.63" width="47.5" height="47.5"/><rect class="cls-2" x="0.13" y="95.13" width="47.5" height="47.5"/><rect class="cls-2" x="47.63" y="95.13" width="47.5" height="47.5"/><rect class="cls-2" x="95.13" y="95.13" width="47.5" height="47.5"/><rect class="cls-2" x="142.63" y="95.13" width="47.5" height="47.5"/><rect class="cls-2" x="190.12" y="95.13" width="47.5" height="47.5"/><rect class="cls-2" x="237.62" y="95.13" width="47.5" height="47.5"/><rect class="cls-2" x="285.12" y="95.13" width="47.5" height="47.5"/><rect class="cls-2" x="0.13" y="142.63" width="47.5" height="47.5"/><rect class="cls-2" x="47.63" y="142.63" width="47.5" height="47.5"/><rect class="cls-2" x="95.13" y="142.63" width="47.5" height="47.5"/><rect class="cls-1" x="95.13" y="142.63" width="47.5" height="47.5"/><rect class="cls-3" x="142.63" y="142.63" width="47.5" height="47.5"/><rect class="cls-1" x="142.63" y="142.63" width="47.5" height="47.5"/><rect class="cls-4" x="190.12" y="142.63" width="47.5" height="47.5"/><rect class="cls-1" x="190.12" y="142.63" width="47.5" height="47.5"/><rect class="cls-4" x="237.62" y="142.63" width="47.5" height="47.5"/><rect class="cls-1" x="237.62" y="142.63" width="47.5" height="47.5"/><rect class="cls-4" x="285.12" y="142.63" width="47.5" height="47.5"/><rect class="cls-1" x="285.12" y="142.63" width="47.5" height="47.5"/><rect class="cls-4" x="0.13" y="190.13" width="47.5" height="47.5"/><rect class="cls-1" x="0.13" y="190.13" width="47.5" height="47.5"/><rect class="cls-4" x="47.63" y="190.13" width="47.5" height="47.5"/><rect class="cls-1" x="47.63" y="190.13" width="47.5" height="47.5"/><rect class="cls-4" x="95.13" y="190.13" width="47.5" height="47.5"/><rect class="cls-1" x="95.13" y="190.13" width="47.5" height="47.5"/><rect class="cls-4" x="142.63" y="190.13" width="47.5" height="47.5"/><rect class="cls-1" x="142.63" y="190.13" width="47.5" height="47.5"/><rect class="cls-4" x="190.12" y="190.13" width="47.5" height="47.5"/><rect class="cls-1" x="190.12" y="190.13" width="47.5" height="47.5"/><rect class="cls-4" x="237.62" y="190.13" width="47.5" height="47.5"/><rect class="cls-1" x="237.62" y="190.13" width="47.5" height="47.5"/><rect class="cls-4" x="285.12" y="190.13" width="47.5" height="47.5"/><rect class="cls-1" x="285.12" y="190.13" width="47.5" height="47.5"/><rect class="cls-4" x="0.13" y="237.63" width="47.5" height="47.5"/><rect class="cls-1" x="0.13" y="237.63" width="47.5" height="47.5"/><rect class="cls-4" x="47.63" y="237.63" width="47.5" height="47.5"/><rect class="cls-1" x="47.63" y="237.63" width="47.5" height="47.5"/><rect class="cls-4" x="95.13" y="237.63" width="47.5" height="47.5"/><rect class="cls-1" x="95.13" y="237.63" width="47.5" height="47.5"/><rect class="cls-4" x="142.63" y="237.63" width="47.5" height="47.5"/><rect class="cls-1" x="142.63" y="237.63" width="47.5" height="47.5"/><rect class="cls-4" x="190.12" y="237.63" width="47.5" height="47.5"/><rect class="cls-1" x="190.12" y="237.63" width="47.5" height="47.5"/><rect class="cls-4" x="237.62" y="237.63" width="47.5" height="47.5"/><rect class="cls-1" x="237.62" y="237.63" width="47.5" height="47.5"/><rect class="cls-4" x="285.12" y="237.63" width="47.5" height="47.5"/><rect class="cls-1" x="285.12" y="237.63" width="47.5" height="47.5"/><rect class="cls-4" x="0.13" y="285.13" width="47.5" height="47.5"/><rect class="cls-1" x="0.13" y="285.13" width="47.5" height="47.5"/><rect class="cls-4" x="47.63" y="285.13" width="47.5" height="47.5"/><rect class="cls-1" x="47.63" y="285.13" width="47.5" height="47.5"/><rect class="cls-4" x="95.13" y="285.13" width="47.5" height="47.5"/><rect class="cls-1" x="95.13" y="285.13" width="47.5" height="47.5"/><rect class="cls-4" x="142.63" y="285.13" width="47.5" height="47.5"/><rect class="cls-1" x="142.63" y="285.13" width="47.5" height="47.5"/><rect class="cls-4" x="190.12" y="285.13" width="47.5" height="47.5"/><rect class="cls-1" x="190.12" y="285.13" width="47.5" height="47.5"/><rect class="cls-4" x="237.62" y="285.13" width="47.5" height="47.5"/><rect class="cls-1" x="237.62" y="285.13" width="47.5" height="47.5"/><rect class="cls-4" x="285.12" y="285.13" width="47.5" height="47.5"/><rect class="cls-1" x="285.12" y="285.13" width="47.5" height="47.5"/><path class="cls-5" d="M23.87,59.62"/><text class="cls-6" transform="translate(154.33 173.89) scale(0.97 1)">x</text><text class="cls-7" transform="translate(171.97 176.97) scale(0.57 0.58)">i</text><text class="cls-8" transform="translate(291.04 316.49) scale(0.97 1)">x</text><text class="cls-9" transform="translate(308.67 319.58) scale(0.57 0.58)">n<tspan class="cls-10" x="21.81" y="-11.57">2</tspan></text><text class="cls-8" transform="translate(294.14 31.31) scale(0.97 1)">x</text><text class="cls-11" transform="translate(311.77 34.4) scale(0.57 0.58)">n</text><text class="cls-12" transform="translate(9.79 31.31) scale(0.97 1)">x</text><text class="cls-13" transform="translate(27.42 34.4) scale(0.57 0.58)">1</text><path class="cls-14" d="M308.88,35.88a12,12,0,0,0-12-12h-273"/><path class="cls-14" d="M23.87,59.63a12.17,12.17,0,0,1,.38-3"/><path class="cls-15" d="M27.09,51.47a12,12,0,0,1,8.78-3.84h261a12,12,0,0,0,10.52-6.26"/><path class="cls-14" d="M308.5,38.6a12.15,12.15,0,0,0,.38-3"/><path class="cls-14" d="M164.57,71.63H35.87a12,12,0,0,1-12-12"/><path class="cls-16" d="M154.32,64.43a.75.75,0,0,0,.23,1l9.68,6.17-9.68,6.16a.75.75,0,0,0-.23,1,.76.76,0,0,0,1,.23L166,72.26A.76.76,0,0,0,166,71L155.36,64.2a.78.78,0,0,0-.41-.12A.74.74,0,0,0,154.32,64.43Z"/></svg>