<svg id="Layer_1" data-name="Layer 1" xmlns="http://www.w3.org/2000/svg" viewBox="0 0 845.25 365.53"><defs><style>.cls-1,.cls-7{fill:none;stroke-linecap:round;stroke-linejoin:round;}.cls-1,.cls-2,.cls-3,.cls-4,.cls-5,.cls-9{stroke:#939598;stroke-width:0.25px;}.cls-2{fill:#aadff3;}.cls-2,.cls-3,.cls-4,.cls-5,.cls-9{stroke-miterlimit:10;}.cls-3{fill:#5ac6f1;}.cls-4{fill:#f69fa6;}.cls-5{fill:#fff;}.cls-6{opacity:0.5;}.cls-7{stroke:#231f20;stroke-dasharray:3;}.cls-8{opacity:0.75;}.cls-9{fill:#939598;}</style></defs><polygon class="cls-1" points="256.38 32.91 303.88 32.91 292.61 53.38 240.61 53.38 256.38 32.91"/><polygon class="cls-1" points="303.88 32.91 351.38 32.91 344.62 53.38 292.61 53.38 303.88 32.91"/><polygon class="cls-1" points="351.38 32.91 398.88 32.91 396.62 53.38 344.62 53.38 351.38 32.91"/><polygon class="cls-1" points="398.88 32.91 446.38 32.91 448.63 53.38 396.62 53.38 398.88 32.91"/><polygon class="cls-1" points="446.38 32.91 493.88 32.91 500.63 53.38 448.63 53.38 446.38 32.91"/><polygon class="cls-1" points="493.88 32.91 541.38 32.91 552.64 53.38 500.63 53.38 493.88 32.91"/><polygon class="cls-1" points="541.38 32.91 588.88 32.91 604.64 53.38 552.64 53.38 541.38 32.91"/><polygon class="cls-1" points="240.61 53.38 292.61 53.38 278.99 78.14 221.54 78.14 240.61 53.38"/><polygon class="cls-1" points="292.61 53.38 344.62 53.38 336.45 78.14 278.99 78.14 292.61 53.38"/><polygon class="cls-1" points="344.62 53.38 396.62 53.38 393.9 78.14 336.45 78.14 344.62 53.38"/><polygon class="cls-1" points="396.62 53.38 448.63 53.38 451.35 78.14 393.9 78.14 396.62 53.38"/><polygon class="cls-1" points="448.63 53.38 500.63 53.38 508.81 78.14 451.35 78.14 448.63 53.38"/><polygon class="cls-1" points="500.63 53.38 552.64 53.38 566.26 78.14 508.81 78.14 500.63 53.38"/><polygon class="cls-1" points="552.64 53.38 604.64 53.38 623.72 78.14 566.26 78.14 552.64 53.38"/><polygon class="cls-1" points="221.54 78.14 278.99 78.14 262.18 108.69 198 108.69 221.54 78.14"/><polygon class="cls-1" points="278.99 78.14 336.45 78.14 326.36 108.69 262.18 108.69 278.99 78.14"/><polygon class="cls-1" points="336.45 78.14 393.9 78.14 390.54 108.69 326.36 108.69 336.45 78.14"/><polygon class="cls-1" points="393.9 78.14 451.35 78.14 454.72 108.69 390.54 108.69 393.9 78.14"/><polygon class="cls-1" points="451.35 78.14 508.81 78.14 518.89 108.69 454.72 108.69 451.35 78.14"/><polygon class="cls-1" points="508.81 78.14 566.26 78.14 583.07 108.69 518.89 108.69 508.81 78.14"/><polygon class="cls-1" points="566.26 78.14 623.72 78.14 647.25 108.69 583.07 108.69 566.26 78.14"/><polygon class="cls-1" points="198 108.69 262.18 108.69 240.91 147.35 168.22 147.35 198 108.69"/><polygon class="cls-1" points="262.18 108.69 326.36 108.69 313.6 147.35 240.91 147.35 262.18 108.69"/><polygon class="cls-2" points="240.61 53.38 292.61 53.38 303.88 32.91 256.38 32.91 240.61 53.38"/><polygon class="cls-2" points="292.61 53.38 344.62 53.38 351.38 32.91 303.88 32.91 292.61 53.38"/><polygon class="cls-2" points="344.62 53.38 396.62 53.38 398.88 32.91 351.38 32.91 344.62 53.38"/><polygon class="cls-2" points="396.62 53.38 448.63 53.38 446.38 32.91 398.88 32.91 396.62 53.38"/><polygon class="cls-2" points="448.63 53.38 500.63 53.38 493.88 32.91 446.38 32.91 448.63 53.38"/><polygon class="cls-2" points="500.63 53.38 552.64 53.38 541.38 32.91 493.88 32.91 500.63 53.38"/><polygon class="cls-2" points="552.64 53.38 604.64 53.38 588.88 32.91 541.38 32.91 552.64 53.38"/><polygon class="cls-2" points="221.54 78.14 278.99 78.14 292.61 53.38 240.61 53.38 221.54 78.14"/><polygon class="cls-2" points="278.99 78.14 336.45 78.14 344.62 53.38 292.61 53.38 278.99 78.14"/><polygon class="cls-2" points="336.45 78.14 393.9 78.14 396.62 53.38 344.62 53.38 336.45 78.14"/><polygon class="cls-2" points="393.9 78.14 451.35 78.14 448.63 53.38 396.62 53.38 393.9 78.14"/><polygon class="cls-2" points="451.35 78.14 508.81 78.14 500.63 53.38 448.63 53.38 451.35 78.14"/><polygon class="cls-2" points="508.81 78.14 566.26 78.14 552.64 53.38 500.63 53.38 508.81 78.14"/><polygon class="cls-2" points="566.26 78.14 623.72 78.14 604.64 53.38 552.64 53.38 566.26 78.14"/><polygon class="cls-2" points="198 108.69 262.18 108.69 278.99 78.14 221.54 78.14 198 108.69"/><polygon class="cls-2" points="262.18 108.69 326.36 108.69 336.45 78.14 278.99 78.14 262.18 108.69"/><polygon class="cls-3" points="326.36 108.69 390.54 108.69 393.9 78.14 336.45 78.14 326.36 108.69"/><polygon class="cls-3" points="390.54 108.69 454.72 108.69 451.35 78.14 393.9 78.14 390.54 108.69"/><polygon class="cls-3" points="454.72 108.69 518.89 108.69 508.81 78.14 451.35 78.14 454.72 108.69"/><polygon class="cls-2" points="518.89 108.69 583.07 108.69 566.26 78.14 508.81 78.14 518.89 108.69"/><polygon class="cls-2" points="583.07 108.69 647.25 108.69 623.72 78.14 566.26 78.14 583.07 108.69"/><polygon class="cls-2" points="168.22 147.35 240.91 147.35 262.18 108.69 198 108.69 168.22 147.35"/><polygon class="cls-2" points="240.91 147.35 313.6 147.35 326.36 108.69 262.18 108.69 240.91 147.35"/><polygon class="cls-3" points="313.6 147.35 386.28 147.35 390.54 108.69 326.36 108.69 313.6 147.35"/><polygon class="cls-1" points="326.36 108.69 390.54 108.69 386.28 147.35 313.6 147.35 326.36 108.69"/><polygon class="cls-4" points="386.28 147.35 458.97 147.35 454.72 108.69 390.54 108.69 386.28 147.35"/><polygon class="cls-1" points="390.54 108.69 454.72 108.69 458.97 147.35 386.28 147.35 390.54 108.69"/><polygon class="cls-5" points="458.97 147.35 531.66 147.35 518.89 108.69 454.72 108.69 458.97 147.35"/><polygon class="cls-1" points="454.72 108.69 518.89 108.69 531.66 147.35 458.97 147.35 454.72 108.69"/><polygon class="cls-5" points="531.66 147.35 604.34 147.35 583.07 108.69 518.89 108.69 531.66 147.35"/><polygon class="cls-1" points="518.89 108.69 583.07 108.69 604.34 147.35 531.66 147.35 518.89 108.69"/><polygon class="cls-5" points="604.34 147.35 677.03 147.35 647.25 108.69 583.07 108.69 604.34 147.35"/><polygon class="cls-1" points="583.07 108.69 647.25 108.69 677.03 147.35 604.34 147.35 583.07 108.69"/><polygon class="cls-5" points="129.35 197.82 213.14 197.82 240.91 147.35 168.22 147.35 129.35 197.82"/><polygon class="cls-1" points="168.22 147.35 240.91 147.35 213.14 197.82 129.35 197.82 168.22 147.35"/><polygon class="cls-5" points="213.14 197.82 296.94 197.82 313.6 147.35 240.91 147.35 213.14 197.82"/><polygon class="cls-1" points="240.91 147.35 313.6 147.35 296.94 197.82 213.14 197.82 240.91 147.35"/><polygon class="cls-5" points="296.94 197.82 380.73 197.82 386.28 147.35 313.6 147.35 296.94 197.82"/><polygon class="cls-1" points="313.6 147.35 386.28 147.35 380.73 197.82 296.94 197.82 313.6 147.35"/><polygon class="cls-5" points="380.73 197.82 464.52 197.82 458.97 147.35 386.28 147.35 380.73 197.82"/><polygon class="cls-1" points="386.28 147.35 458.97 147.35 464.52 197.82 380.73 197.82 386.28 147.35"/><polygon class="cls-5" points="464.52 197.82 548.32 197.82 531.66 147.35 458.97 147.35 464.52 197.82"/><polygon class="cls-1" points="458.97 147.35 531.66 147.35 548.32 197.82 464.52 197.82 458.97 147.35"/><polygon class="cls-5" points="548.32 197.82 632.11 197.82 604.34 147.35 531.66 147.35 548.32 197.82"/><polygon class="cls-1" points="531.66 147.35 604.34 147.35 632.11 197.82 548.32 197.82 531.66 147.35"/><polygon class="cls-5" points="632.11 197.82 715.91 197.82 677.03 147.35 604.34 147.35 632.11 197.82"/><polygon class="cls-1" points="604.34 147.35 677.03 147.35 715.91 197.82 632.11 197.82 604.34 147.35"/><polygon class="cls-5" points="76.44 266.5 175.35 266.5 213.14 197.82 129.35 197.82 76.44 266.5"/><polygon class="cls-1" points="129.35 197.82 213.14 197.82 175.35 266.5 76.44 266.5 129.35 197.82"/><polygon class="cls-5" points="175.35 266.5 274.26 266.5 296.94 197.82 213.14 197.82 175.35 266.5"/><polygon class="cls-1" points="213.14 197.82 296.94 197.82 274.26 266.5 175.35 266.5 213.14 197.82"/><polygon class="cls-5" points="274.26 266.5 373.17 266.5 380.73 197.82 296.94 197.82 274.26 266.5"/><polygon class="cls-1" points="296.94 197.82 380.73 197.82 373.17 266.5 274.26 266.5 296.94 197.82"/><polygon class="cls-5" points="373.17 266.5 472.08 266.5 464.52 197.82 380.73 197.82 373.17 266.5"/><polygon class="cls-1" points="380.73 197.82 464.52 197.82 472.08 266.5 373.17 266.5 380.73 197.82"/><polygon class="cls-5" points="472.08 266.5 570.99 266.5 548.32 197.82 464.52 197.82 472.08 266.5"/><polygon class="cls-1" points="464.52 197.82 548.32 197.82 570.99 266.5 472.08 266.5 464.52 197.82"/><polygon class="cls-5" points="570.99 266.5 669.9 266.5 632.11 197.82 548.32 197.82 570.99 266.5"/><polygon class="cls-1" points="548.32 197.82 632.11 197.82 669.9 266.5 570.99 266.5 548.32 197.82"/><polygon class="cls-5" points="669.9 266.5 768.81 266.5 715.91 197.82 632.11 197.82 669.9 266.5"/><polygon class="cls-1" points="632.11 197.82 715.91 197.82 768.81 266.5 669.9 266.5 632.11 197.82"/><polygon class="cls-5" points="0.25 365.41 120.93 365.41 175.35 266.5 76.44 266.5 0.25 365.41"/><polygon class="cls-1" points="76.44 266.5 175.35 266.5 120.93 365.41 0.25 365.41 76.44 266.5"/><polygon class="cls-5" points="120.93 365.41 241.61 365.41 274.26 266.5 175.35 266.5 120.93 365.41"/><polygon class="cls-1" points="175.35 266.5 274.26 266.5 241.61 365.41 120.93 365.41 175.35 266.5"/><polygon class="cls-5" points="241.61 365.41 362.29 365.41 373.17 266.5 274.26 266.5 241.61 365.41"/><polygon class="cls-1" points="274.26 266.5 373.17 266.5 362.29 365.41 241.61 365.41 274.26 266.5"/><polygon class="cls-5" points="362.29 365.41 482.97 365.41 472.08 266.5 373.17 266.5 362.29 365.41"/><polygon class="cls-1" points="373.17 266.5 472.08 266.5 482.97 365.41 362.29 365.41 373.17 266.5"/><polygon class="cls-5" points="482.97 365.41 603.64 365.41 570.99 266.5 472.08 266.5 482.97 365.41"/><polygon class="cls-1" points="472.08 266.5 570.99 266.5 603.64 365.41 482.97 365.41 472.08 266.5"/><polygon class="cls-5" points="603.64 365.41 724.32 365.41 669.9 266.5 570.99 266.5 603.64 365.41"/><polygon class="cls-1" points="570.99 266.5 669.9 266.5 724.32 365.41 603.64 365.41 570.99 266.5"/><polygon class="cls-5" points="724.32 365.41 845 365.41 768.81 266.5 669.9 266.5 724.32 365.41"/><polygon class="cls-1" points="669.9 266.5 768.81 266.5 845 365.41 724.32 365.41 669.9 266.5"/><g class="cls-6"><line class="cls-7" x1="309.23" y1="49.14" x2="313.6" y2="147.35"/><line class="cls-7" x1="385.01" y1="49.14" x2="385.01" y2="147.35"/><line class="cls-7" x1="393.6" y1="18.64" x2="390.54" y2="108.69"/><line class="cls-7" x1="518.9" y1="108.69" x2="506.65" y2="18.64"/><line class="cls-7" x1="488.86" y1="0.5" x2="508.81" y2="78.14"/><line class="cls-7" x1="353.64" y1="0.5" x2="336.45" y2="78.14"/></g><g class="cls-8"><polygon class="cls-9" points="337.08 18.64 393.6 18.64 398.71 0.5 353.64 0.5 337.08 18.64"/><polygon class="cls-9" points="393.6 18.64 450.13 18.64 443.79 0.5 398.71 0.5 393.6 18.64"/><polygon class="cls-9" points="450.13 18.64 506.65 18.64 488.87 0.5 443.79 0.5 450.13 18.64"/><polygon class="cls-9" points="309.23 49.14 385.01 49.14 393.6 18.64 337.08 18.64 309.23 49.14"/></g></svg>