<svg id="Layer_1" data-name="Layer 1" xmlns="http://www.w3.org/2000/svg" viewBox="0 0 1034.92 319.36"><defs><style>.cls-1,.cls-2,.cls-3{fill:none;stroke-linecap:round;stroke-linejoin:round;}.cls-1,.cls-2{stroke:#bcbec0;}.cls-2{stroke-dasharray:5.92 5.92;}.cls-3{stroke:#a7a9ac;stroke-width:1.5px;}.cls-4{fill:#a7a9ac;}.cls-10,.cls-11,.cls-13,.cls-14,.cls-15,.cls-17,.cls-18,.cls-20,.cls-5,.cls-6,.cls-8{font-size:37.15px;}.cls-13,.cls-14,.cls-15,.cls-5,.cls-6{fill:#939598;}.cls-10,.cls-14,.cls-15,.cls-17,.cls-18,.cls-20,.cls-5{font-family:CMUSerif-Italic, CMU Serif;font-style:italic;}.cls-10,.cls-5{letter-spacing:0.02em;}.cls-11,.cls-13,.cls-16,.cls-19,.cls-6{font-family:CMUSerif-Roman, CMU Serif;}.cls-11,.cls-19,.cls-20,.cls-6{letter-spacing:0.03em;}.cls-7{fill:#c9e6d2;}.cls-10,.cls-11,.cls-17,.cls-18,.cls-20,.cls-8{fill:#231f20;}.cls-8{font-family:CMUSerif-Bold, CMU Serif;font-weight:700;letter-spacing:0.03em;}.cls-9{fill:#f69fa6;}.cls-12{fill:#aadff3;}.cls-13,.cls-14,.cls-17{letter-spacing:0.03em;}.cls-15{letter-spacing:0.03em;}.cls-16,.cls-19{font-style:normal;}.cls-16,.cls-18{letter-spacing:0.02em;}</style></defs><path class="cls-1" d="M175.06,28.88l3,.2"/><path class="cls-2" d="M184,29.54c61.86,5.5,60.64,27.81,70,130.14,7,99.16,5.05,125.34,72.62,131.41"/><path class="cls-1" d="M329.58,291.34l3,.23"/><line class="cls-3" x1="0.75" y1="159.68" x2="76.66" y2="159.68"/><path class="cls-4" d="M66.41,166.88a.75.75,0,0,1,.23-1l9.67-6.16-9.67-6.16a.75.75,0,0,1,.8-1.27l10.67,6.8a.73.73,0,0,1,.35.63.74.74,0,0,1-.35.63l-10.67,6.8a.72.72,0,0,1-.4.12A.75.75,0,0,1,66.41,166.88Z"/><text class="cls-5" transform="translate(24.65 149.18) scale(0.97 1)">h</text><text class="cls-6" transform="translate(44.02 152.27) scale(0.57 0.58)">0</text><line class="cls-3" x1="146.71" y1="262.66" x2="146.71" y2="207.37"/><path class="cls-4" d="M153.91,217.62a.76.76,0,0,1-1-.23l-6.16-9.68-6.16,9.68a.75.75,0,1,1-1.27-.81l6.8-10.67a.74.74,0,0,1,.63-.35.73.73,0,0,1,.63.35l6.8,10.67a.77.77,0,0,1,.12.4A.78.78,0,0,1,153.91,217.62Z"/><line class="cls-3" x1="146.71" y1="113.8" x2="146.71" y2="58.5"/><path class="cls-4" d="M153.91,68.75a.75.75,0,0,1-1-.23l-6.16-9.67-6.16,9.67a.75.75,0,0,1-1.27-.8l6.8-10.67a.74.74,0,0,1,.63-.35.73.73,0,0,1,.63.35l6.8,10.67a.72.72,0,0,1,.12.4A.75.75,0,0,1,153.91,68.75Z"/><line class="cls-3" x1="214.96" y1="159.68" x2="290.87" y2="159.68"/><path class="cls-4" d="M280.62,166.88a.75.75,0,0,1,.23-1l9.68-6.16-9.68-6.16a.75.75,0,0,1,.8-1.27l10.67,6.8a.73.73,0,0,1,.35.63.74.74,0,0,1-.35.63l-10.67,6.8a.72.72,0,0,1-.4.12A.75.75,0,0,1,280.62,166.88Z"/><text class="cls-5" transform="translate(238.86 149.18) scale(0.97 1)">h</text><text class="cls-6" transform="translate(258.23 152.27) scale(0.57 0.58)">1</text><rect class="cls-7" x="78.46" y="113.8" width="136.5" height="91.76" rx="12"/><text class="cls-8" transform="translate(97.25 172.89) scale(0.97 1)">RNN</text><rect class="cls-9" x="118.36" y="262.66" width="56.7" height="56.7" rx="12"/><text class="cls-10" transform="translate(132.62 299.17) scale(0.97 1)">x</text><text class="cls-11" transform="translate(150.26 302.25) scale(0.57 0.58)">1</text><rect class="cls-12" x="118.36" width="56.7" height="56.7" rx="12"/><text class="cls-10" transform="translate(132.62 36.51) scale(0.97 1)">x</text><text class="cls-11" transform="translate(150.26 39.59) scale(0.57 0.58)">2</text><line class="cls-3" x1="360.92" y1="262.66" x2="360.92" y2="207.37"/><path class="cls-4" d="M368.12,217.62a.74.74,0,0,1-1-.23l-6.17-9.68-6.16,9.68a.75.75,0,1,1-1.27-.81l6.8-10.67a.75.75,0,0,1,.63-.35.73.73,0,0,1,.63.35l6.8,10.67a.77.77,0,0,1,.12.4A.76.76,0,0,1,368.12,217.62Z"/><line class="cls-3" x1="360.92" y1="113.8" x2="360.92" y2="58.5"/><path class="cls-4" d="M368.12,68.75a.74.74,0,0,1-1-.23l-6.17-9.67-6.16,9.67a.75.75,0,0,1-1.27-.8l6.8-10.67a.75.75,0,0,1,.63-.35.73.73,0,0,1,.63.35l6.8,10.67a.74.74,0,0,1-.23,1Z"/><line class="cls-3" x1="429.17" y1="159.68" x2="505.08" y2="159.68"/><path class="cls-4" d="M494.83,166.88a.75.75,0,0,1,.23-1l9.68-6.16-9.68-6.16a.75.75,0,0,1,.8-1.27l10.68,6.8a.74.74,0,0,1,.34.63.75.75,0,0,1-.34.63l-10.68,6.8a.72.72,0,0,1-.4.12A.75.75,0,0,1,494.83,166.88Z"/><text class="cls-5" transform="translate(453.07 149.18) scale(0.97 1)">h</text><text class="cls-6" transform="translate(472.44 152.27) scale(0.57 0.58)">2</text><rect class="cls-7" x="292.67" y="113.8" width="136.5" height="91.76" rx="12"/><text class="cls-8" transform="translate(311.46 172.89) scale(0.97 1)">RNN</text><rect class="cls-9" x="332.57" y="262.66" width="56.7" height="56.7" rx="12"/><text class="cls-10" transform="translate(346.84 299.17) scale(0.97 1)">x</text><text class="cls-11" transform="translate(364.47 302.25) scale(0.57 0.58)">2</text><rect class="cls-12" x="332.57" width="56.7" height="56.7" rx="12"/><text class="cls-10" transform="translate(346.84 36.51) scale(0.97 1)">x</text><text class="cls-11" transform="translate(364.47 39.59) scale(0.57 0.58)">3</text><line class="cls-3" x1="576.04" y1="262.66" x2="576.04" y2="207.37"/><path class="cls-4" d="M583.24,217.62a.76.76,0,0,1-1-.23L576,207.71l-6.17,9.68a.74.74,0,0,1-1,.23.76.76,0,0,1-.23-1l6.8-10.67a.73.73,0,0,1,.63-.35.75.75,0,0,1,.63.35l6.8,10.67a.76.76,0,0,1,.11.4A.77.77,0,0,1,583.24,217.62Z"/><line class="cls-3" x1="576.04" y1="113.8" x2="576.04" y2="58.5"/><path class="cls-4" d="M583.24,68.75a.75.75,0,0,1-1-.23L576,58.85l-6.17,9.67a.74.74,0,0,1-1,.23.74.74,0,0,1-.23-1l6.8-10.67a.73.73,0,0,1,.63-.35.75.75,0,0,1,.63.35l6.8,10.67a.71.71,0,0,1,.11.4A.74.74,0,0,1,583.24,68.75Z"/><line class="cls-3" x1="644.29" y1="159.68" x2="720.2" y2="159.68"/><path class="cls-4" d="M709.94,166.88a.76.76,0,0,1,.23-1l9.68-6.16-9.68-6.16a.75.75,0,1,1,.81-1.27l10.67,6.8a.73.73,0,0,1,.35.63.74.74,0,0,1-.35.63L711,167.11a.77.77,0,0,1-.4.12A.78.78,0,0,1,709.94,166.88Z"/><text class="cls-5" transform="translate(668.19 149.18) scale(0.97 1)">h</text><text class="cls-6" transform="translate(687.56 152.27) scale(0.57 0.58)">3</text><rect class="cls-7" x="507.79" y="113.8" width="136.5" height="91.76" rx="12"/><text class="cls-8" transform="translate(526.58 172.89) scale(0.97 1)">RNN</text><rect class="cls-9" x="547.69" y="262.66" width="56.7" height="56.7" rx="12"/><text class="cls-10" transform="translate(561.95 299.17) scale(0.97 1)">x</text><text class="cls-11" transform="translate(579.59 302.25) scale(0.57 0.58)">3</text><rect class="cls-12" x="547.69" width="56.7" height="56.7" rx="12"/><text class="cls-10" transform="translate(561.95 36.51) scale(0.97 1)">x</text><text class="cls-11" transform="translate(579.59 39.59) scale(0.57 0.58)">4</text><text class="cls-13" transform="translate(756.04 161.68) scale(0.97 1)">...</text><line class="cls-3" x1="820.71" y1="159.68" x2="896.62" y2="159.68"/><path class="cls-4" d="M886.37,166.88a.75.75,0,0,1,.23-1l9.67-6.16-9.67-6.16a.75.75,0,0,1,.8-1.27l10.67,6.8a.73.73,0,0,1,.35.63.74.74,0,0,1-.35.63l-10.67,6.8a.72.72,0,0,1-.4.12A.75.75,0,0,1,886.37,166.88Z"/><text class="cls-14" transform="translate(834.66 149.18) scale(0.97 1)">h</text><text class="cls-15" transform="translate(854.03 152.27) scale(0.57 0.58)">n<tspan class="cls-16" x="21.81" y="0">-2</tspan></text><line class="cls-3" x1="966.67" y1="262.66" x2="966.67" y2="207.37"/><path class="cls-4" d="M973.87,217.62a.76.76,0,0,1-1-.23l-6.16-9.68-6.16,9.68a.75.75,0,0,1-1.27-.81l6.8-10.67a.74.74,0,0,1,.63-.35.73.73,0,0,1,.63.35l6.8,10.67a.77.77,0,0,1,.12.4A.78.78,0,0,1,973.87,217.62Z"/><line class="cls-3" x1="966.67" y1="113.8" x2="966.67" y2="58.5"/><path class="cls-4" d="M973.87,68.75a.75.75,0,0,1-1-.23l-6.16-9.67-6.16,9.67a.75.75,0,0,1-1.27-.8L966,57.05a.74.74,0,0,1,.63-.35.73.73,0,0,1,.63.35l6.8,10.67a.72.72,0,0,1,.12.4A.75.75,0,0,1,973.87,68.75Z"/><rect class="cls-7" x="898.42" y="113.8" width="136.5" height="91.76" rx="12"/><text class="cls-8" transform="translate(917.21 172.89) scale(0.97 1)">RNN</text><rect class="cls-9" x="938.32" y="262.66" width="56.7" height="56.7" rx="12"/><text class="cls-17" transform="translate(942.37 299.17) scale(0.97 1)">x</text><text class="cls-18" transform="translate(960 302.25) scale(0.57 0.58)">n-<tspan class="cls-19" x="36.04" y="0">1</tspan></text><rect class="cls-12" x="938.32" width="56.7" height="56.7" rx="12"/><text class="cls-17" transform="translate(951.93 36.51) scale(0.97 1)">x</text><text class="cls-20" transform="translate(969.57 39.59) scale(0.57 0.58)">n</text><path class="cls-1" d="M389.27,28.88l3,.2"/><path class="cls-2" d="M398.17,29.54C460,35,458.81,57.35,468.23,159.68c7,99.16,5,125.34,72.61,131.41"/><path class="cls-1" d="M543.79,291.34l3,.23"/></svg>