<svg id="Layer_1" data-name="Layer 1" xmlns="http://www.w3.org/2000/svg" viewBox="0 0 1573.17 525.51"><defs><style>.cls-1{fill:#d1d3d4;}.cls-2{font-size:37.15px;}.cls-2,.cls-4{fill:#231f20;font-family:Helvetica-Light, Helvetica;font-weight:300;}.cls-3{fill:#e6e7e8;}.cls-4{font-size:24px;}.cls-10,.cls-11,.cls-12,.cls-13,.cls-5,.cls-6,.cls-7,.cls-8,.cls-9{fill:none;stroke:#808285;stroke-miterlimit:10;stroke-width:1.5px;}.cls-6{stroke-dasharray:3.17 3.17;}.cls-7{stroke-dasharray:2.84 2.84;}.cls-8{stroke-dasharray:3.04 3.04;}.cls-9{stroke-dasharray:3.01 3.01;}.cls-10{stroke-dasharray:3 3;}.cls-11{stroke-dasharray:3.01 3.01;}.cls-12{stroke-dasharray:2.99 2.99;}.cls-13{stroke-dasharray:2.96 2.96;}</style></defs><rect class="cls-1" x="594.43" width="356.81" height="62.36" rx="12"/><text class="cls-2" transform="translate(623.21 42.54) scale(0.97 1)">generative models</text><rect class="cls-1" x="443.1" y="119.67" width="295.49" height="62.36" rx="12"/><text class="cls-2" transform="translate(470.35 161.21) scale(0.97 1)">explicit density</text><rect class="cls-1" x="806.18" y="119.67" width="295.49" height="62.36" rx="12"/><text class="cls-2" transform="translate(833.46 161.21) scale(0.97 1)">implicit density</text><rect class="cls-1" x="371.77" y="239.34" width="366.81" height="62.36" rx="12"/><text class="cls-2" transform="translate(390.51 279.89) scale(0.97 1)">approximate density</text><rect class="cls-3" y="263.67" width="304.18" height="261.85" rx="12"/><path class="cls-1" d="M12,239.34H292.18a12,12,0,0,1,12,12V301.7a0,0,0,0,1,0,0H0a0,0,0,0,1,0,0V251.34A12,12,0,0,1,12,239.34Z"/><text class="cls-2" transform="translate(17.52 281.89) scale(0.97 1)">tractable density</text><text class="cls-4" transform="translate(23.44 336.45) scale(0.86 1)">Fully Visible Belief Networks<tspan x="0" y="28.8">- NADE</tspan><tspan x="0" y="57.6">- MADE</tspan><tspan x="0" y="86.4">- PixelRNN/CNN</tspan><tspan x="0" y="115.2">- NICE / RealNVP</tspan><tspan x="0" y="144">- Glow</tspan><tspan x="0" y="172.8">- Ffjord</tspan></text><rect class="cls-3" x="698.5" y="435.65" width="251.75" height="89.86" rx="12"/><path class="cls-1" d="M710.5,415H938.25a12,12,0,0,1,12,12v50.36a0,0,0,0,1,0,0H698.5a0,0,0,0,1,0,0V427A12,12,0,0,1,710.5,415Z"/><text class="cls-2" transform="translate(715.92 456.59) scale(0.97 1)">Markov chain</text><text class="cls-4" transform="translate(733.13 512.16) scale(0.86 1)">Boltzmann Machine</text><rect class="cls-3" x="372.22" y="438.2" width="258.68" height="87.31" rx="12"/><text class="cls-4" transform="translate(390.8 510.16) scale(0.86 1)">Variational Autoencoder</text><path class="cls-1" d="M384.22,415H618.9a12,12,0,0,1,12,12v50.36a0,0,0,0,1,0,0H372.22a0,0,0,0,1,0,0V427A12,12,0,0,1,384.22,415Z"/><text class="cls-2" transform="translate(419.22 456.59) scale(0.97 1)">variational</text><rect class="cls-3" x="806.18" y="259.95" width="349.7" height="89.86" rx="12"/><path class="cls-1" d="M818.18,239.34h325.7a12,12,0,0,1,12,12V301.7a0,0,0,0,1,0,0H806.18a0,0,0,0,1,0,0V251.34A12,12,0,0,1,818.18,239.34Z"/><text class="cls-2" transform="translate(872.57 280.89) scale(0.97 1)">Markov chain</text><text class="cls-4" transform="translate(833.55 336.45) scale(0.86 1)">Generative Stochastic Networks</text><rect class="cls-3" x="1223.48" y="259.95" width="349.7" height="89.86" rx="12"/><path class="cls-1" d="M1235.48,239.34h325.7a12,12,0,0,1,12,12V301.7a0,0,0,0,1,0,0h-349.7a0,0,0,0,1,0,0V251.34A12,12,0,0,1,1235.48,239.34Z"/><text class="cls-2" transform="translate(1352.14 280.89) scale(0.97 1)">direct</text><text class="cls-4" transform="translate(1246.85 336.45) scale(0.86 1)">Generative Adversarial Networks</text><path class="cls-5" d="M590.84,102.55a10.8,10.8,0,0,1,.1-1.5"/><path class="cls-6" d="M591.74,98a12.11,12.11,0,0,1,8.06-7"/><path class="cls-5" d="M601.34,90.65a10.6,10.6,0,0,1,1.5-.1"/><line class="cls-5" x1="590.84" y1="102.55" x2="590.84" y2="104.05"/><line class="cls-7" x1="590.84" y1="106.89" x2="590.84" y2="116.83"/><line class="cls-5" x1="590.84" y1="118.25" x2="590.84" y2="119.75"/><line class="cls-5" x1="772.83" y1="62.36" x2="772.83" y2="63.86"/><line class="cls-7" x1="772.83" y1="66.7" x2="772.83" y2="76.64"/><line class="cls-5" x1="772.83" y1="78.06" x2="772.83" y2="79.56"/><path class="cls-5" d="M772.83,78.55a12.33,12.33,0,0,1-.09,1.5"/><path class="cls-6" d="M771.93,83.11a12.09,12.09,0,0,1-8.06,7"/><path class="cls-5" d="M762.33,90.46a12.33,12.33,0,0,1-1.5.09"/><path class="cls-5" d="M784.83,90.55a12.33,12.33,0,0,1-1.5-.09"/><path class="cls-6" d="M780.28,89.65a12.09,12.09,0,0,1-7-8.05"/><path class="cls-5" d="M772.93,80.05a10.6,10.6,0,0,1-.1-1.5"/><path class="cls-5" d="M941.93,90.55a10.6,10.6,0,0,1,1.5.1"/><path class="cls-6" d="M946.48,91.45a12.15,12.15,0,0,1,7.06,8.06"/><path class="cls-5" d="M953.84,101.05a12.58,12.58,0,0,1,.09,1.5"/><line class="cls-5" x1="953.93" y1="102.55" x2="953.93" y2="104.05"/><line class="cls-7" x1="953.93" y1="106.89" x2="953.93" y2="116.83"/><line class="cls-5" x1="953.93" y1="118.25" x2="953.93" y2="119.75"/><line class="cls-5" x1="602.84" y1="90.55" x2="604.34" y2="90.55"/><line class="cls-8" x1="607.38" y1="90.55" x2="757.81" y2="90.55"/><line class="cls-5" x1="759.33" y1="90.55" x2="760.83" y2="90.55"/><line class="cls-5" x1="784.42" y1="90.55" x2="785.92" y2="90.55"/><line class="cls-8" x1="788.96" y1="90.55" x2="939.39" y2="90.55"/><line class="cls-5" x1="940.91" y1="90.55" x2="942.41" y2="90.55"/><line class="cls-5" x1="590.84" y1="181.96" x2="590.84" y2="183.46"/><line class="cls-7" x1="590.84" y1="186.3" x2="590.84" y2="196.23"/><line class="cls-5" x1="590.84" y1="197.65" x2="590.84" y2="199.15"/><path class="cls-5" d="M152.09,222.15a12.33,12.33,0,0,1,.09-1.5"/><path class="cls-6" d="M153,217.59a12.09,12.09,0,0,1,8-7.05"/><path class="cls-5" d="M162.59,210.24a12.33,12.33,0,0,1,1.5-.09"/><line class="cls-5" x1="152.09" y1="222.15" x2="152.09" y2="223.65"/><line class="cls-7" x1="152.09" y1="226.49" x2="152.09" y2="236.42"/><line class="cls-5" x1="152.09" y1="237.84" x2="152.09" y2="239.34"/><path class="cls-5" d="M590.84,198.15a12.29,12.29,0,0,1-.09,1.49"/><path class="cls-6" d="M589.94,202.7a12.09,12.09,0,0,1-8.06,7.05"/><path class="cls-5" d="M580.34,210.05a10.6,10.6,0,0,1-1.5.1"/><path class="cls-5" d="M555.18,222.15a12.33,12.33,0,0,1,.09-1.5"/><path class="cls-6" d="M556.08,217.59a12.09,12.09,0,0,1,8.06-7.05"/><path class="cls-5" d="M565.68,210.24a12.33,12.33,0,0,1,1.5-.09"/><line class="cls-5" x1="555.18" y1="222.15" x2="555.18" y2="223.65"/><line class="cls-7" x1="555.18" y1="226.49" x2="555.18" y2="236.42"/><line class="cls-5" x1="555.18" y1="237.84" x2="555.18" y2="239.34"/><line class="cls-5" x1="164.09" y1="210.15" x2="165.59" y2="210.15"/><line class="cls-9" x1="168.59" y1="210.15" x2="575.84" y2="210.15"/><line class="cls-5" x1="577.34" y1="210.15" x2="578.84" y2="210.15"/><line class="cls-5" x1="953.93" y1="181.96" x2="953.93" y2="183.46"/><line class="cls-7" x1="953.93" y1="186.3" x2="953.93" y2="196.23"/><line class="cls-5" x1="953.93" y1="197.65" x2="953.93" y2="199.15"/><line class="cls-5" x1="981.03" y1="222.15" x2="981.03" y2="223.65"/><line class="cls-7" x1="981.03" y1="226.49" x2="981.03" y2="236.42"/><line class="cls-5" x1="981.03" y1="237.84" x2="981.03" y2="239.34"/><path class="cls-5" d="M969,210.15a12.33,12.33,0,0,1,1.5.09"/><path class="cls-6" d="M973.58,211.05a12.08,12.08,0,0,1,7.06,8"/><path class="cls-5" d="M980.94,220.65a12.33,12.33,0,0,1,.09,1.5"/><line class="cls-5" x1="965.93" y1="210.15" x2="967.43" y2="210.15"/><line class="cls-10" x1="970.43" y1="210.15" x2="1383.32" y2="210.15"/><line class="cls-5" x1="1384.82" y1="210.15" x2="1386.32" y2="210.15"/><line class="cls-5" x1="1398.32" y1="222.15" x2="1398.32" y2="223.65"/><line class="cls-7" x1="1398.32" y1="226.49" x2="1398.32" y2="236.42"/><line class="cls-5" x1="1398.32" y1="237.84" x2="1398.32" y2="239.34"/><path class="cls-5" d="M1386.32,210.15a12.33,12.33,0,0,1,1.5.09"/><path class="cls-6" d="M1390.88,211.05a12.09,12.09,0,0,1,7,8"/><path class="cls-5" d="M1398.23,220.65a12.33,12.33,0,0,1,.09,1.5"/><path class="cls-5" d="M965.93,210.15a10.6,10.6,0,0,1-1.5-.1"/><path class="cls-6" d="M961.38,209.24a12.06,12.06,0,0,1-7.06-8.05"/><path class="cls-5" d="M954,199.64a12.29,12.29,0,0,1-.09-1.49"/><path class="cls-5" d="M501.56,397.85a12.33,12.33,0,0,1,.09-1.5"/><path class="cls-6" d="M502.46,393.3a12.15,12.15,0,0,1,8.06-7.06"/><path class="cls-5" d="M512.06,385.94a12.33,12.33,0,0,1,1.5-.09"/><line class="cls-5" x1="501.56" y1="397.85" x2="501.56" y2="399.35"/><line class="cls-7" x1="501.56" y1="402.19" x2="501.56" y2="412.13"/><line class="cls-5" x1="501.56" y1="413.55" x2="501.56" y2="415.05"/><line class="cls-5" x1="555.18" y1="301.7" x2="555.18" y2="303.2"/><line class="cls-11" x1="555.18" y1="306.21" x2="555.18" y2="370.85"/><line class="cls-5" x1="555.18" y1="372.35" x2="555.18" y2="373.85"/><path class="cls-5" d="M555.18,373.85a12.33,12.33,0,0,1-.09,1.5"/><path class="cls-6" d="M554.28,378.4a12.12,12.12,0,0,1-8.06,7.06"/><path class="cls-5" d="M544.68,385.76a12.33,12.33,0,0,1-1.5.09"/><path class="cls-5" d="M567.18,385.85a12.33,12.33,0,0,1-1.5-.09"/><path class="cls-6" d="M562.63,385a12.1,12.1,0,0,1-7.06-8.06"/><path class="cls-5" d="M555.27,375.35a12.33,12.33,0,0,1-.09-1.5"/><path class="cls-5" d="M812.37,385.85a12.33,12.33,0,0,1,1.5.09"/><path class="cls-6" d="M816.93,386.75a12.11,12.11,0,0,1,7.05,8.06"/><path class="cls-5" d="M824.28,396.35a12.33,12.33,0,0,1,.09,1.5"/><line class="cls-5" x1="824.37" y1="397.85" x2="824.37" y2="399.35"/><line class="cls-7" x1="824.37" y1="402.19" x2="824.37" y2="412.13"/><line class="cls-5" x1="824.37" y1="413.55" x2="824.37" y2="415.05"/><line class="cls-5" x1="567.18" y1="385.85" x2="568.68" y2="385.85"/><line class="cls-12" x1="571.67" y1="385.85" x2="809.38" y2="385.85"/><line class="cls-5" x1="810.87" y1="385.85" x2="812.37" y2="385.85"/><line class="cls-5" x1="513.56" y1="385.85" x2="515.06" y2="385.85"/><line class="cls-13" x1="518.02" y1="385.85" x2="540.2" y2="385.85"/><line class="cls-5" x1="541.68" y1="385.85" x2="543.18" y2="385.85"/></svg>